<svg width="21" height="15" viewBox="0 0 21 15" fill="none" xmlns="http://www.w3.org/2000/svg">
<path d="M8.65605 0.155618L4.67283 2.86256H1.74974C0.782235 2.86256 0 3.6448 0 4.6123V9.40864C0 10.3761 0.782235 11.1584 1.74974 11.1584H4.67283L8.65605 13.8653C9.24273 14.2667 10.0353 13.8447 10.0353 13.1345V0.88639C10.0353 0.176203 9.24273 -0.245792 8.65605 0.155618Z" fill="white"/>
<path d="M13.6375 3.089C13.1434 2.8111 12.5156 2.98607 12.2377 3.48011C11.9598 3.97416 12.1348 4.602 12.6288 4.8799C13.4007 5.31219 13.8742 6.1253 13.8742 7.00017C13.8742 7.87504 13.4007 8.69845 12.6288 9.12044C12.1348 9.39834 11.9598 10.0262 12.2377 10.5202C12.4229 10.8599 12.7729 11.0452 13.1331 11.0452C13.3081 11.0452 13.4728 11.004 13.6375 10.9113C15.0578 10.1188 15.9327 8.61611 15.9327 6.98988C15.9327 5.36365 15.0476 3.89182 13.6375 3.089Z" fill="white"/>
<path d="M17.3637 0.412931C16.952 0.0218139 16.3035 0.0321064 15.9124 0.443809C15.5213 0.855512 15.5316 1.50394 15.9433 1.89506C17.3431 3.24339 18.115 5.06517 18.115 7.01047C18.115 8.95576 17.3431 10.7775 15.9433 12.1259C15.5316 12.517 15.5213 13.1757 15.9124 13.5771C16.1183 13.783 16.3859 13.8962 16.6535 13.8962C16.9108 13.8962 17.1681 13.8036 17.3637 13.608C19.1752 11.8686 20.1735 9.52185 20.1735 7.01047C20.1735 4.49908 19.1752 2.15238 17.3637 0.412931Z" fill="white"/>
</svg>
