<svg width="25" height="17" viewBox="0 0 25 17" fill="none" xmlns="http://www.w3.org/2000/svg">
<path d="M10.727 0.188682L5.79079 3.47078H2.16836C0.969383 3.47078 0 4.41922 0 5.59229V11.4077C0 12.5808 0.969383 13.5292 2.16836 13.5292H5.79079L10.727 16.8113C11.454 17.298 12.4362 16.7864 12.4362 15.9253V1.07472C12.4362 0.213641 11.454 -0.298017 10.727 0.188682Z" fill="white"/>
<path d="M16.9002 3.74532C16.288 3.40838 15.5099 3.62053 15.1655 4.21954C14.8211 4.81856 15.038 5.5798 15.6502 5.91675C16.6068 6.44089 17.1936 7.42676 17.1936 8.48752C17.1936 9.54827 16.6068 10.5466 15.6502 11.0583C15.038 11.3952 14.8211 12.1565 15.1655 12.7555C15.3951 13.1673 15.8288 13.3919 16.2752 13.3919C16.492 13.3919 16.6961 13.342 16.9002 13.2297C18.6604 12.2688 19.7446 10.4468 19.7446 8.47504C19.7446 6.50328 18.6476 4.71872 16.9002 3.74532Z" fill="white"/>
<path d="M21.5179 0.500668C21.0077 0.0264488 20.2041 0.0389282 19.7194 0.538106C19.2347 1.03728 19.2475 1.82349 19.7577 2.29771C21.4924 3.93252 22.449 6.14138 22.449 8.5C22.449 10.8586 21.4924 13.0675 19.7577 14.7023C19.2475 15.1765 19.2347 15.9752 19.7194 16.4619C19.9745 16.7115 20.3061 16.8488 20.6378 16.8488C20.9567 16.8488 21.2755 16.7364 21.5179 16.4993C23.7628 14.3903 25 11.545 25 8.5C25 5.45501 23.7628 2.6097 21.5179 0.500668Z" fill="white"/>
</svg>
