<svg width="21" height="18" viewBox="0 0 21 18" fill="none" xmlns="http://www.w3.org/2000/svg">
<path d="M14.2134 5.72624L18.3752 1.71561C18.5635 1.53422 18.6576 1.31253 18.6785 1.08076C18.6994 0.7986 18.5948 0.506368 18.3752 0.294752C17.9674 -0.0982505 17.3086 -0.0982505 16.9008 0.294752L10.7104 6.25025V3.64031C10.7104 2.945 9.90522 2.53184 9.30918 2.92484L5.26239 5.57509H2.29266C1.30972 5.57509 0.514998 6.34094 0.514998 7.28817V11.984C0.514998 12.9313 1.30972 13.6971 2.29266 13.6971H2.98281L0.305862 16.2768C-0.101954 16.6698 -0.101954 17.3047 0.305862 17.7078C0.514998 17.9093 0.776419 18 1.0483 18C1.13195 18 1.22606 17.9899 1.30972 17.9698C1.48748 17.9295 1.65479 17.8388 1.79073 17.7078L12.875 7.02617L14.2134 5.72624Z" fill="white"/>
<path d="M9.30918 16.3474C9.90522 16.7404 10.7104 16.3272 10.7104 15.6319V11.4097L7.09233 14.8963L9.30918 16.3474Z" fill="white"/>
<path d="M15.5624 6.73394L14.0775 8.16487C14.4121 8.57803 14.6108 9.09195 14.6108 9.63611C14.6108 10.5027 14.1298 11.2988 13.3455 11.712C12.8436 11.984 12.6658 12.5987 12.9482 13.0824C13.1364 13.415 13.4919 13.5964 13.8579 13.5964C14.0357 13.5964 14.203 13.5561 14.3703 13.4654C15.8133 12.6894 16.7022 11.2182 16.7022 9.62603C16.7022 8.5478 16.2839 7.51994 15.5624 6.73394Z" fill="white"/>
<path d="M18.6889 3.72092L17.2041 5.14178C18.3125 6.39132 18.9085 7.96333 18.9085 9.63611C18.9085 11.5407 18.1243 13.3243 16.7022 14.6444C16.2839 15.0273 16.2734 15.6722 16.6708 16.0652C16.8799 16.2768 17.1518 16.3776 17.4237 16.3776C17.6851 16.3776 17.9465 16.2869 18.1452 16.0954C19.9856 14.3924 20.9999 12.0949 20.9999 9.63611C21.0104 7.42925 20.1947 5.35339 18.6889 3.72092Z" fill="white"/>
</svg>
