<svg width="25" height="22" viewBox="0 0 25 22" fill="none" xmlns="http://www.w3.org/2000/svg">
<path d="M16.9208 6.69108L21.8753 2.01201C22.0994 1.80039 22.2114 1.54175 22.2363 1.27135C22.2612 0.942168 22.1367 0.60123 21.8753 0.354344C21.3898 -0.104158 20.6055 -0.104158 20.12 0.354344L12.7505 7.30242V4.25749C12.7505 3.4463 11.7919 2.96428 11.0824 3.42278L6.26475 6.51474H2.72935C1.55919 6.51474 0.613093 7.40823 0.613093 8.51334V13.9919C0.613093 15.097 1.55919 15.9905 2.72935 15.9905H3.55096L0.364121 19.0001C-0.121374 19.4586 -0.121374 20.1993 0.364121 20.6695C0.613093 20.9047 0.924309 21.0105 1.24797 21.0105C1.34756 21.0105 1.4596 20.9987 1.55919 20.9752C1.77081 20.9282 1.96999 20.8224 2.13182 20.6695L15.3273 8.20767L16.9208 6.69108Z" fill="white"/>
<path d="M11.0824 19.0824C11.7919 19.5409 12.7505 19.0589 12.7505 18.2477V13.3217L8.44325 17.3895L11.0824 19.0824Z" fill="white"/>
<path d="M18.5266 7.86673L16.7589 9.53615C17.1573 10.0182 17.3938 10.6177 17.3938 11.2526C17.3938 12.2637 16.8212 13.1924 15.8875 13.6744C15.29 13.9919 15.0784 14.709 15.4145 15.2733C15.6385 15.6613 16.0618 15.8729 16.4975 15.8729C16.7091 15.8729 16.9083 15.8259 17.1075 15.7201C18.8254 14.8148 19.8835 13.0984 19.8835 11.2408C19.8835 9.9829 19.3856 8.78374 18.5266 7.86673Z" fill="white"/>
<path d="M22.2487 4.35155L20.481 6.00921C21.8006 7.46701 22.5102 9.30102 22.5102 11.2526C22.5102 13.4746 21.5765 15.5555 19.8835 17.0956C19.3856 17.5423 19.3731 18.2947 19.8462 18.7532C20.0951 19.0001 20.4188 19.1177 20.7425 19.1177C21.0537 19.1177 21.3649 19.0119 21.6014 18.7885C23.7924 16.8016 24.9999 14.1212 24.9999 11.2526C25.0123 8.67793 24.0413 6.25609 22.2487 4.35155Z" fill="white"/>
</svg>
