<svg width="17" height="18" viewBox="0 0 17 18" fill="none" xmlns="http://www.w3.org/2000/svg">
<path fill-rule="evenodd" clip-rule="evenodd" d="M0 8.50001C0 13.1952 3.81547 17.0106 8.50001 17.0106C13.1952 17.0106 17 13.1846 17 8.50001C17 3.81547 13.1846 0 8.50001 0C3.81547 0 0 3.80487 0 8.50001ZM2.1197 8.50001C2.1197 4.9813 4.9813 2.1197 8.50001 2.1197C12.0187 2.1197 14.8803 4.9813 14.8803 8.50001C14.8803 12.0187 12.0187 14.8803 8.50001 14.8803C4.9813 14.8803 2.1197 12.0187 2.1197 8.50001ZM9.33738 10.8423C9.54935 11.0437 9.81432 11.1497 10.0899 11.1497C10.3654 11.1497 10.6304 11.0437 10.8318 10.8317C11.2451 10.4184 11.2451 9.75065 10.8318 9.33731L9.55995 8.06549V4.58918C9.55995 4.00626 9.08302 3.52932 8.5001 3.52932C7.91718 3.52932 7.44025 4.00626 7.44025 4.58918V8.94517L9.33738 10.8423Z" fill="white"/>
</svg>
